<svg width="17" height="17" viewBox="0 0 17 17" fill="none" xmlns="http://www.w3.org/2000/svg">
<g clip-path="url(#clip0_13_46)">
<path d="M15.1786 0H1.82143C0.81548 0 0 0.81548 0 1.82143V15.1786C0 16.1845 0.81548 17 1.82143 17H15.1786C16.1845 17 17 16.1845 17 15.1786V1.82143C17 0.81548 16.1845 0 15.1786 0ZM15.7857 15.1786C15.7857 15.5139 15.5139 15.7857 15.1785 15.7857H1.82143C1.4861 15.7857 1.21427 15.5139 1.21427 15.1786V1.82143C1.21427 1.4861 1.4861 1.21427 1.82143 1.21427H15.1786C15.5139 1.21427 15.7857 1.4861 15.7857 1.82143V15.1786H15.7857Z" fill="#DB166E"/>
<path d="M5.46433 3.64285H3.64291C3.30758 3.64285 3.03575 3.91468 3.03575 4.25001C3.03575 4.58533 3.30758 4.85716 3.64291 4.85716H5.46433C5.79966 4.85716 6.07149 4.58533 6.07149 4.25001C6.07149 3.91468 5.79966 3.64285 5.46433 3.64285Z" fill="#DB166E"/>
<path d="M13.3572 3.64285H7.89287C7.55755 3.64285 7.28572 3.91468 7.28572 4.25001C7.28572 4.58533 7.55755 4.85716 7.89287 4.85716H13.3572C13.6925 4.85716 13.9643 4.58533 13.9643 4.25001C13.9643 3.91468 13.6924 3.64285 13.3572 3.64285Z" fill="#DB166E"/>
<path d="M5.46433 7.89287H3.64291C3.30758 7.89287 3.03575 8.1647 3.03575 8.50002C3.03575 8.83535 3.30758 9.10714 3.64291 9.10714H5.46433C5.79966 9.10714 6.07149 8.83531 6.07149 8.49999C6.07149 8.16466 5.79966 7.89287 5.46433 7.89287Z" fill="#DB166E"/>
<path d="M13.3572 7.89287H7.89287C7.55755 7.89287 7.28572 8.1647 7.28572 8.50002C7.28572 8.83535 7.55755 9.10714 7.89287 9.10714H13.3572C13.6925 9.10714 13.9643 8.83531 13.9643 8.49999C13.9643 8.16466 13.6924 7.89287 13.3572 7.89287Z" fill="#DB166E"/>
<path d="M5.46433 12.1428H3.64291C3.30758 12.1428 3.03575 12.4147 3.03575 12.75C3.03575 13.0853 3.30758 13.3571 3.64291 13.3571H5.46433C5.79966 13.3571 6.07149 13.0853 6.07149 12.75C6.07149 12.4147 5.79966 12.1428 5.46433 12.1428Z" fill="#DB166E"/>
<path d="M13.3572 12.1428H7.89287C7.55755 12.1428 7.28572 12.4147 7.28572 12.75C7.28572 13.0853 7.55755 13.3571 7.89287 13.3571H13.3572C13.6925 13.3571 13.9643 13.0853 13.9643 12.75C13.9643 12.4147 13.6924 12.1428 13.3572 12.1428Z" fill="#DB166E"/>
</g>
<defs>
<clipPath id="clip0_13_46">
<rect width="17" height="17" fill="white"/>
</clipPath>
</defs>
</svg>
