<svg width="20" height="17" viewBox="0 0 20 17" fill="none" xmlns="http://www.w3.org/2000/svg">
<path d="M8.82927 2.99522C9.21 2.30813 10.1979 2.30813 10.5787 2.99523L11.9162 5.40911C12.0701 5.6869 12.3469 5.87506 12.6618 5.91606L15.4473 6.27874C16.3029 6.39015 16.6252 7.46021 15.9735 8.02569L14.1154 9.63785C13.8458 9.87179 13.7213 10.2317 13.7888 10.5822L14.247 12.962C14.4015 13.7643 13.5807 14.4032 12.8408 14.0566L10.1282 12.7858C9.85938 12.6599 9.54853 12.6599 9.27974 12.7858L6.56713 14.0566C5.82723 14.4032 5.00646 13.7643 5.16094 12.962L5.61912 10.5822C5.68661 10.2317 5.56213 9.87179 5.29251 9.63785L3.43443 8.02569C2.78269 7.46021 3.10503 6.39015 3.96066 6.27874L6.74612 5.91606C7.06105 5.87505 7.33777 5.6869 7.4917 5.40911L8.82927 2.99522Z" fill="#DB166E"/>
</svg>
