<svg width="375" height="435" viewBox="0 0 375 435" fill="none" xmlns="http://www.w3.org/2000/svg">
<path d="M437 382.4H-63V382.65H437V382.4Z" fill="#EBEBEB"/>
<path d="M74.66 389.21H41.54V389.46H74.66V389.21Z" fill="#EBEBEB"/>
<path d="M148.89 398.37H108.14V398.62H148.89V398.37Z" fill="#EBEBEB"/>
<path d="M40.54 395.24H-10.54V395.49H40.54V395.24Z" fill="#EBEBEB"/>
<path d="M386.9 390.89H293.76V391.14H386.9V390.89Z" fill="#EBEBEB"/>
<path d="M284.86 390.89H278.53V391.14H284.86V390.89Z" fill="#EBEBEB"/>
<path d="M256.44 395.11H214.21V395.36H256.44V395.11Z" fill="#EBEBEB"/>
<path d="M174 337.8H-19.09C-20.6027 337.797 -22.0525 337.195 -23.1212 336.124C-24.1898 335.053 -24.79 333.603 -24.79 332.09V60.66C-24.7769 59.156 -24.1708 57.718 -23.1036 56.6582C-22.0363 55.5985 -20.5941 55.0026 -19.09 55H174C175.514 55 176.967 55.6016 178.038 56.6724C179.108 57.7433 179.71 59.1956 179.71 60.71V332.09C179.71 333.604 179.108 335.057 178.038 336.128C176.967 337.198 175.514 337.8 174 337.8ZM-19.09 55.2C-20.5364 55.2026 -21.9226 55.7791 -22.9444 56.8027C-23.9662 57.8264 -24.54 59.2136 -24.54 60.66V332.09C-24.54 333.536 -23.9662 334.924 -22.9444 335.947C-21.9226 336.971 -20.5364 337.547 -19.09 337.55H174C175.446 337.545 176.832 336.968 177.855 335.945C178.878 334.922 179.455 333.536 179.46 332.09V60.66C179.455 59.2135 178.878 57.8278 177.855 56.805C176.832 55.7822 175.446 55.2053 174 55.2H-19.09Z" fill="#EBEBEB"/>
<path d="M390.31 337.8H197.21C195.697 337.795 194.248 337.191 193.178 336.122C192.109 335.052 191.505 333.603 191.5 332.09V60.66C191.516 59.1551 192.124 57.7171 193.193 56.6576C194.262 55.5981 195.705 55.0025 197.21 55H390.31C391.812 55.0052 393.252 55.6022 394.317 56.6617C395.382 57.7212 395.987 59.1578 396 60.66V332.09C396.001 332.839 395.855 333.58 395.57 334.272C395.285 334.964 394.866 335.593 394.338 336.123C393.809 336.654 393.182 337.075 392.491 337.362C391.799 337.65 391.059 337.799 390.31 337.8ZM197.21 55.2C195.764 55.2053 194.378 55.7822 193.355 56.805C192.332 57.8278 191.755 59.2135 191.75 60.66V332.09C191.755 333.536 192.332 334.922 193.355 335.945C194.378 336.968 195.764 337.545 197.21 337.55H390.31C391.756 337.545 393.142 336.968 394.165 335.945C395.188 334.922 395.765 333.536 395.77 332.09V60.66C395.765 59.2135 395.188 57.8278 394.165 56.805C393.142 55.7822 391.756 55.2053 390.31 55.2H197.21Z" fill="#EBEBEB"/>
<path d="M7.67004 171.1H94.43C94.43 171.1 89.76 160.24 74.16 163.62C74.16 163.62 70.8801 151.27 58.98 152.98C58.98 152.98 49.13 142.3 34.76 146.44C20.39 150.58 21.63 163.62 21.63 163.62C21.63 163.62 11 160.84 7.67004 171.1Z" fill="#FAFAFA"/>
<path d="M239.89 104.94H153.14C153.14 104.94 157.8 94.07 173.4 97.45C173.4 97.45 176.68 85.1 188.59 86.81C188.59 86.81 198.44 76.14 212.8 80.28C227.16 84.42 225.94 97.45 225.94 97.45C225.94 97.45 236.61 94.68 239.89 104.94Z" fill="#FAFAFA"/>
<path d="M303.87 102.11H370.24C370.24 102.11 367.7 93.0001 358.1 96.0001C358.1 96.0001 360.1 83.7401 353.02 82.3201C345.94 80.9001 343.69 90.2301 343.69 90.2301C342.07 88.3939 339.969 87.0466 337.625 86.3399C335.28 85.6332 332.785 85.5951 330.42 86.2301C328.094 86.8356 325.975 88.0571 324.286 89.766C322.596 91.4749 321.399 93.6078 320.82 95.9401C320.82 95.9401 309 89.1701 303.87 102.11Z" fill="#FAFAFA"/>
<path d="M63.7 222.17H-17.04V382.14H63.7V222.17Z" fill="#E6E6E6"/>
<path d="M49.02 222.17H-17.04V382.14H49.02V222.17Z" fill="#F0F0F0"/>
<path d="M64.65 222.17H-18.78V224.78H64.65V222.17Z" fill="#E0E0E0"/>
<path d="M64.65 216.95H-18.78V219.56H64.65V216.95Z" fill="#E0E0E0"/>
<path d="M62.9 219.56H-17.04V222.17H62.9V219.56Z" fill="#F0F0F0"/>
<path d="M1.63998 231.58H-10.77V244.18H1.63998V231.58Z" fill="#E6E6E6"/>
<path d="M1.62994 231.58H-9.68005V244.18H1.62994V231.58Z" fill="#F5F5F5"/>
<path d="M20.43 231.58H8.02002V244.18H20.43V231.58Z" fill="#E6E6E6"/>
<path d="M20.42 231.58H9.10999V244.18H20.42V231.58Z" fill="#F5F5F5"/>
<path d="M39.2201 231.58H26.8101V244.18H39.2201V231.58Z" fill="#E6E6E6"/>
<path d="M39.21 231.58H27.9V244.18H39.21V231.58Z" fill="#F5F5F5"/>
<path d="M1.63998 250.13H-10.77V262.73H1.63998V250.13Z" fill="#E6E6E6"/>
<path d="M1.62994 250.13H-9.68005V262.73H1.62994V250.13Z" fill="#F5F5F5"/>
<path d="M20.43 250.13H8.02002V262.73H20.43V250.13Z" fill="#E6E6E6"/>
<path d="M20.42 250.13H9.10999V262.73H20.42V250.13Z" fill="#F5F5F5"/>
<path d="M39.2201 250.13H26.8101V262.73H39.2201V250.13Z" fill="#E6E6E6"/>
<path d="M39.21 250.13H27.9V262.73H39.21V250.13Z" fill="#F5F5F5"/>
<path d="M1.63998 284.1H-10.77V296.7H1.63998V284.1Z" fill="#E6E6E6"/>
<path d="M1.62994 284.1H-9.68005V296.7H1.62994V284.1Z" fill="#F5F5F5"/>
<path d="M20.43 284.1H8.02002V296.7H20.43V284.1Z" fill="#E6E6E6"/>
<path d="M20.42 284.1H9.10999V296.7H20.42V284.1Z" fill="#F5F5F5"/>
<path d="M39.2201 284.1H26.8101V296.7H39.2201V284.1Z" fill="#E6E6E6"/>
<path d="M39.21 284.1H27.9V296.7H39.21V284.1Z" fill="#F5F5F5"/>
<path d="M1.63998 302.65H-10.77V315.25H1.63998V302.65Z" fill="#E6E6E6"/>
<path d="M1.62994 302.65H-9.68005V315.25H1.62994V302.65Z" fill="#F5F5F5"/>
<path d="M20.43 302.65H8.02002V315.25H20.43V302.65Z" fill="#E6E6E6"/>
<path d="M20.42 302.65H9.10999V315.25H20.42V302.65Z" fill="#F5F5F5"/>
<path d="M39.2201 302.65H26.8101V315.25H39.2201V302.65Z" fill="#E6E6E6"/>
<path d="M39.21 302.65H27.9V315.25H39.21V302.65Z" fill="#F5F5F5"/>
<path d="M1.63998 340.4H-10.77V353H1.63998V340.4Z" fill="#E6E6E6"/>
<path d="M1.62994 340.4H-9.68005V353H1.62994V340.4Z" fill="#F5F5F5"/>
<path d="M20.43 340.4H8.02002V353H20.43V340.4Z" fill="#E6E6E6"/>
<path d="M20.42 340.4H9.10999V353H20.42V340.4Z" fill="#F5F5F5"/>
<path d="M39.2201 340.4H26.8101V353H39.2201V340.4Z" fill="#E6E6E6"/>
<path d="M39.21 340.4H27.9V353H39.21V340.4Z" fill="#F5F5F5"/>
<path d="M1.63998 358.95H-10.77V371.55H1.63998V358.95Z" fill="#E6E6E6"/>
<path d="M1.62994 358.95H-9.68005V371.55H1.62994V358.95Z" fill="#F5F5F5"/>
<path d="M20.43 358.95H8.02002V371.55H20.43V358.95Z" fill="#E6E6E6"/>
<path d="M20.42 358.95H9.10999V371.55H20.42V358.95Z" fill="#F5F5F5"/>
<path d="M39.2201 358.95H26.8101V371.55H39.2201V358.95Z" fill="#E6E6E6"/>
<path d="M39.21 358.95H27.9V371.55H39.21V358.95Z" fill="#F5F5F5"/>
<path d="M63.7 271.59H-17.04V272.76H63.7V271.59Z" fill="#E0E0E0"/>
<path d="M63.7 329.65H-17.04V330.82H63.7V329.65Z" fill="#E0E0E0"/>
<path d="M381.2 189.16H301.43V383.27H381.2V189.16Z" fill="#E0E0E0"/>
<path d="M358.48 189.16H301.43V383.27H358.48V189.16Z" fill="#F0F0F0"/>
<path d="M328.54 205.11H307.31V215.42H328.54V205.11Z" fill="#E6E6E6"/>
<path d="M328.54 205.11H308.72V215.42H328.54V205.11Z" fill="#F5F5F5"/>
<path d="M353.1 205.11H331.87V215.42H353.1V205.11Z" fill="#E6E6E6"/>
<path d="M353.1 205.11H333.28V215.42H353.1V205.11Z" fill="#F5F5F5"/>
<path d="M328.54 224.51H307.31V234.82H328.54V224.51Z" fill="#E6E6E6"/>
<path d="M328.54 224.51H308.72V234.82H328.54V224.51Z" fill="#F5F5F5"/>
<path d="M353.1 224.51H331.87V234.82H353.1V224.51Z" fill="#E6E6E6"/>
<path d="M353.1 224.51H333.28V234.82H353.1V224.51Z" fill="#F5F5F5"/>
<path d="M328.54 249.3H307.31V259.61H328.54V249.3Z" fill="#E6E6E6"/>
<path d="M328.54 249.3H308.72V259.61H328.54V249.3Z" fill="#F5F5F5"/>
<path d="M353.1 249.3H331.87V259.61H353.1V249.3Z" fill="#E6E6E6"/>
<path d="M353.1 249.3H333.28V259.61H353.1V249.3Z" fill="#F5F5F5"/>
<path d="M328.54 263.55H307.31V273.86H328.54V263.55Z" fill="#E6E6E6"/>
<path d="M328.54 263.55H308.72V273.86H328.54V263.55Z" fill="#F5F5F5"/>
<path d="M353.1 263.55H331.87V273.86H353.1V263.55Z" fill="#E6E6E6"/>
<path d="M353.1 263.55H333.28V273.86H353.1V263.55Z" fill="#F5F5F5"/>
<path d="M328.54 286.96H307.31V297.27H328.54V286.96Z" fill="#E6E6E6"/>
<path d="M328.54 286.96H308.72V297.27H328.54V286.96Z" fill="#F5F5F5"/>
<path d="M353.1 286.96H331.87V297.27H353.1V286.96Z" fill="#E6E6E6"/>
<path d="M353.1 286.96H333.28V297.27H353.1V286.96Z" fill="#F5F5F5"/>
<path d="M328.54 301.2H307.31V311.51H328.54V301.2Z" fill="#E6E6E6"/>
<path d="M328.54 301.2H308.72V311.51H328.54V301.2Z" fill="#F5F5F5"/>
<path d="M353.1 301.2H331.87V311.51H353.1V301.2Z" fill="#E6E6E6"/>
<path d="M353.1 301.2H333.28V311.51H353.1V301.2Z" fill="#F5F5F5"/>
<path d="M328.54 326.68H307.31V336.99H328.54V326.68Z" fill="#E6E6E6"/>
<path d="M328.54 326.68H308.72V336.99H328.54V326.68Z" fill="#F5F5F5"/>
<path d="M353.1 326.68H331.87V336.99H353.1V326.68Z" fill="#E6E6E6"/>
<path d="M353.1 326.68H333.28V336.99H353.1V326.68Z" fill="#F5F5F5"/>
<path d="M328.54 345.49H307.31V355.8H328.54V345.49Z" fill="#E6E6E6"/>
<path d="M328.54 345.49H308.72V355.8H328.54V345.49Z" fill="#F5F5F5"/>
<path d="M353.1 345.49H331.87V355.8H353.1V345.49Z" fill="#E6E6E6"/>
<path d="M353.1 345.49H333.28V355.8H353.1V345.49Z" fill="#F5F5F5"/>
<path opacity="0.05" d="M381.2 241.17H301.43V242.94H381.2V241.17Z" fill="black"/>
<path opacity="0.05" d="M381.2 279.52H301.43V281.29H381.2V279.52Z" fill="black"/>
<path opacity="0.05" d="M381.2 318.21H301.43V319.98H381.2V318.21Z" fill="black"/>
<path d="M381.2 183.42H297.67V189.62H381.2V183.42Z" fill="#E0E0E0"/>
<path opacity="0.05" d="M381.2 183.42H362.11V189.62H381.2V183.42Z" fill="black"/>
<path d="M187.82 145.58H97.64V379.96H187.82V145.58Z" fill="#E6E6E6"/>
<path d="M154.45 145.58H64.26V379.96H154.45V145.58Z" fill="#F0F0F0"/>
<path d="M146.58 161.49H72.13V173.43H146.58V161.49Z" fill="#E6E6E6"/>
<path d="M146.58 161.49H75.02V173.43H146.58V161.49Z" fill="#F5F5F5"/>
<path d="M146.58 181.59H72.13V193.53H146.58V181.59Z" fill="#E6E6E6"/>
<path d="M146.58 181.59H75.02V193.53H146.58V181.59Z" fill="#F5F5F5"/>
<path d="M146.58 202.47H72.13V214.41H146.58V202.47Z" fill="#E6E6E6"/>
<path d="M146.58 202.47H75.02V214.41H146.58V202.47Z" fill="#F5F5F5"/>
<path d="M146.58 223.36H72.13V235.3H146.58V223.36Z" fill="#E6E6E6"/>
<path d="M146.58 223.36H75.02V235.3H146.58V223.36Z" fill="#F5F5F5"/>
<path d="M146.58 244.24H72.13V256.18H146.58V244.24Z" fill="#E6E6E6"/>
<path d="M146.58 244.24H75.02V256.18H146.58V244.24Z" fill="#F5F5F5"/>
<path d="M146.58 265.13H72.13V277.07H146.58V265.13Z" fill="#E6E6E6"/>
<path d="M146.58 265.13H75.02V277.07H146.58V265.13Z" fill="#F5F5F5"/>
<path d="M146.58 288.15H72.13V300.09H146.58V288.15Z" fill="#E6E6E6"/>
<path d="M146.58 288.15H75.02V300.09H146.58V288.15Z" fill="#F5F5F5"/>
<path d="M146.58 311.16H72.13V323.1H146.58V311.16Z" fill="#E6E6E6"/>
<path d="M146.58 311.16H75.02V323.1H146.58V311.16Z" fill="#F5F5F5"/>
<path d="M146.58 334.18H72.13V346.12H146.58V334.18Z" fill="#E6E6E6"/>
<path d="M146.58 334.18H75.02V346.12H146.58V334.18Z" fill="#F5F5F5"/>
<path d="M146.58 357.2H72.13V369.14H146.58V357.2Z" fill="#E6E6E6"/>
<path d="M146.58 357.2H75.02V369.14H146.58V357.2Z" fill="#F5F5F5"/>
<path d="M190.17 143.22H61.71V148.94H190.17V143.22Z" fill="#F5F5F5"/>
<path d="M190.17 132.9H61.71V138.62H190.17V132.9Z" fill="#F5F5F5"/>
<path d="M185.9 137.5H64.26V143.22H185.9V137.5Z" fill="#F0F0F0"/>
<path d="M187.83 161.49H162.7V173.43H187.83V161.49Z" fill="#E0E0E0"/>
<path d="M187.83 181.14H162.7V193.08H187.83V181.14Z" fill="#E0E0E0"/>
<path d="M187.83 200.79H162.7V212.73H187.83V200.79Z" fill="#E0E0E0"/>
<path d="M187.83 223.35H162.7V235.29H187.83V223.35Z" fill="#E0E0E0"/>
<path d="M187.83 244.24H162.7V256.18H187.83V244.24Z" fill="#E0E0E0"/>
<path d="M187.83 265.13H162.7V277.07H187.83V265.13Z" fill="#E0E0E0"/>
<path d="M187.83 288.14H162.7V300.08H187.83V288.14Z" fill="#E0E0E0"/>
<path d="M187.83 311.16H162.7V323.1H187.83V311.16Z" fill="#E0E0E0"/>
<path d="M187.83 334.18H162.7V346.12H187.83V334.18Z" fill="#E0E0E0"/>
<path d="M187.83 357.2H162.7V369.14H187.83V357.2Z" fill="#E0E0E0"/>
<path d="M303.75 227.49H293.83V243.01H303.75V227.49Z" fill="#E0E0E0"/>
<path d="M303.75 252.89H293.83V268.41H303.75V252.89Z" fill="#E0E0E0"/>
<path d="M303.75 277.58H293.83V293.1H303.75V277.58Z" fill="#E0E0E0"/>
<path d="M303.75 303.68H293.83V319.2H303.75V303.68Z" fill="#E0E0E0"/>
<path d="M303.75 329.08H293.83V344.6H303.75V329.08Z" fill="#E0E0E0"/>
<path d="M303.75 211.89H199.36V370.65H303.75V211.89Z" fill="#E6E6E6"/>
<path d="M286.12 211.89H199.37V370.65H286.12V211.89Z" fill="#F0F0F0"/>
<path d="M277.71 227.5H207.17V243.02H277.71V227.5Z" fill="#EBEBEB"/>
<path d="M277.71 252.89H207.17V268.41H277.71V252.89Z" fill="#EBEBEB"/>
<path d="M277.71 278.29H207.17V293.81H277.71V278.29Z" fill="#EBEBEB"/>
<path d="M277.71 303.68H207.17V319.2H277.71V303.68Z" fill="#EBEBEB"/>
<path d="M277.71 329.08H207.17V344.6H277.71V329.08Z" fill="#EBEBEB"/>
<path d="M277.71 227.5H209.77V243.02H277.71V227.5Z" fill="#F5F5F5"/>
<path d="M277.71 252.89H209.77V268.41H277.71V252.89Z" fill="#F5F5F5"/>
<path d="M277.71 278.29H209.77V293.81H277.71V278.29Z" fill="#F5F5F5"/>
<path d="M277.71 303.68H209.77V319.2H277.71V303.68Z" fill="#F5F5F5"/>
<path d="M277.71 329.08H209.77V344.6H277.71V329.08Z" fill="#F5F5F5"/>
<path d="M187 427.56C294.082 427.56 380.89 422.492 380.89 416.24C380.89 409.988 294.082 404.92 187 404.92C79.9175 404.92 -6.89001 409.988 -6.89001 416.24C-6.89001 422.492 79.9175 427.56 187 427.56Z" fill="#F5F5F5"/>
<path d="M76.73 416.24H72.73" stroke="#DB166E" stroke-linecap="round" stroke-linejoin="round"/>
<path d="M65.17 416.24H-36.98" stroke="#DB166E" stroke-linecap="round" stroke-linejoin="round" stroke-dasharray="7.57 7.57"/>
<path d="M314.756 176.871L199.372 178.784L200.753 262.083L316.138 260.169L314.756 176.871Z" fill="#DB166E"/>
<path opacity="0.3" d="M269.019 177.619L199.258 178.776L200.64 262.075L270.4 260.918L269.019 177.619Z" fill="white"/>
<path opacity="0.3" d="M279.531 183.232L259.441 183.634L259.553 189.234L279.643 188.832L279.531 183.232Z" fill="white"/>
<path opacity="0.3" d="M280.128 248.006L260.04 248.339L260.133 253.938L280.22 253.605L280.128 248.006Z" fill="white"/>
<path d="M293.52 230.19C300.031 230.19 305.31 224.217 305.31 216.85C305.31 209.483 300.031 203.51 293.52 203.51C287.009 203.51 281.73 209.483 281.73 216.85C281.73 224.217 287.009 230.19 293.52 230.19Z" stroke="white" stroke-miterlimit="10"/>
<path d="M294.01 205.54V207.78" stroke="white" stroke-linecap="round" stroke-linejoin="round"/>
<path d="M294.52 226.06V228.3" stroke="white" stroke-linecap="round" stroke-linejoin="round"/>
<path d="M283.58 216.41H285.83" stroke="white" stroke-linecap="round" stroke-linejoin="round"/>
<path d="M301.64 216.42H303.89" stroke="white" stroke-linecap="round" stroke-linejoin="round"/>
<path d="M294 216.41L294.01 209.51" stroke="white" stroke-width="0.5" stroke-linecap="round" stroke-linejoin="round"/>
<path d="M294.44 216.86L299.32 221.74" stroke="white" stroke-width="0.5" stroke-linecap="round" stroke-linejoin="round"/>
<path d="M295.09 216.42C295.09 216.636 295.026 216.846 294.906 217.026C294.786 217.205 294.616 217.345 294.417 217.427C294.218 217.51 293.999 217.531 293.787 217.489C293.576 217.447 293.382 217.343 293.229 217.191C293.077 217.038 292.973 216.844 292.931 216.633C292.889 216.421 292.91 216.202 292.993 216.003C293.075 215.804 293.215 215.633 293.394 215.514C293.574 215.394 293.784 215.33 294 215.33C294.143 215.329 294.286 215.356 294.419 215.41C294.551 215.465 294.672 215.545 294.774 215.646C294.875 215.748 294.955 215.868 295.01 216.001C295.064 216.134 295.091 216.276 295.09 216.42Z" fill="white"/>
<path opacity="0.3" d="M293.52 233.72C302.141 233.72 309.13 226.167 309.13 216.85C309.13 207.533 302.141 199.98 293.52 199.98C284.899 199.98 277.91 207.533 277.91 216.85C277.91 226.167 284.899 233.72 293.52 233.72Z" fill="white"/>
<path d="M163.88 363.15C165.62 364.48 200.55 360.72 191.52 298.75C191.52 298.75 208.09 302.96 209.87 302.68C209.87 302.68 234.18 339.95 216.48 358.41C198.78 376.87 172.4 378 172.4 378L163.88 363.15Z" fill="#DB166E"/>
<path opacity="0.3" d="M163.88 363.15C165.62 364.48 200.55 360.72 191.52 298.75C191.52 298.75 208.09 302.96 209.87 302.68C209.87 302.68 234.18 339.95 216.48 358.41C198.78 376.87 172.4 378 172.4 378L163.88 363.15Z" fill="black"/>
<path d="M202.59 308.34C202.68 308.34 192.83 308.53 189.53 304.43C186.23 300.33 184 293 190 288C196 283 231.23 261.4 247.82 259.7C264.41 258 282.17 268.7 282.17 268.7L260.45 284.76L213.68 296.08L202.59 308.34Z" fill="#263238"/>
<path d="M170.74 353.39L171.65 362.35L182.41 361.44L180.79 352.23L170.74 353.39Z" fill="#FFC3BD"/>
<path d="M168.65 361.7L184.26 361.48L185.37 369.36C185.37 369.36 170.75 369.56 164.74 368.76C158.73 367.96 159.67 364.83 159.67 364.83C159.67 364.83 166.71 365 168.65 361.7Z" fill="#263238"/>
<path d="M304.878 384.38C307.209 361.474 293.379 341.305 273.989 339.332C254.599 337.359 236.991 354.329 234.66 377.235C232.33 400.142 246.159 420.311 265.549 422.284C284.939 424.257 302.547 407.287 304.878 384.38Z" fill="#263238"/>
<path d="M245.24 253.29C245.24 253.29 246.86 290.46 225.24 291.52C203.62 292.58 180.39 290.21 180.39 290.21L187.2 357L166.93 358.25C166.93 358.25 152.38 301.59 150.09 287.35C147.8 273.11 149.79 263.04 164.82 256.72C179.85 250.4 245.24 253.29 245.24 253.29Z" fill="#DB166E"/>
<path d="M124.25 371.22L151.18 293L187.18 253.26C187.18 253.26 155.76 253.38 140.66 262.06C125.56 270.74 125 281.17 122.23 293.58C119.46 305.99 108.35 364.73 108.35 364.73L124.25 371.22Z" fill="#DB166E"/>
<path opacity="0.7" d="M245.24 253.29C245.24 253.29 211.78 251.8 187.24 253.29C187.24 253.29 155.82 253.41 140.72 262.09C125.62 270.77 125 281.17 122.23 293.58C119.46 305.99 108.35 364.73 108.35 364.73L124.25 371.22L151.18 293C155.71 314.68 166.93 358.21 166.93 358.21L187.2 357L180.38 290.25C180.38 290.25 203.6 292.62 225.23 291.56C246.86 290.5 245.24 253.29 245.24 253.29Z" fill="black"/>
<path d="M190 193L177.57 194.51C177.57 194.51 175.41 217.36 173.4 221.8C173.4 221.8 135.17 227.05 119.51 226.6L111.56 232L111.28 241.39L119.07 241.62L121.58 235.67C121.58 235.67 126.84 235.44 128.06 232.48C128.06 232.48 168.68 242.29 183.64 231.09C183.66 231.1 192.68 217.85 190 193Z" fill="#FFC3BD"/>
<path d="M225.62 131.81C225.62 131.81 229.51 136.81 228.03 141.14C227.621 142.375 226.902 143.484 225.94 144.359C224.978 145.235 223.807 145.848 222.54 146.14C222.54 146.14 221.81 153.07 217.72 153.27C213.63 153.47 215 138 215 138L225.62 131.81Z" fill="#263238"/>
<path d="M194.13 253.46L191.4 208.79L174.46 197.53C174.46 197.53 180 178 190.6 174.69C201.2 171.38 224.32 163.79 238.34 167.56C252.36 171.33 250.75 187.87 248.34 200.14L245.64 200.78C245.64 200.78 245.22 249.13 245.2 253.29L194.13 253.46Z" fill="#263238"/>
<path d="M224.61 170.32C219.06 175.69 207.74 178.89 204.61 176.22C201.48 173.55 205.43 171.1 208.37 168.08C209.96 166.42 209.91 163.31 209.54 160.83C209.345 159.58 209.058 158.347 208.68 157.14C198.29 156.57 193.98 151.71 193.55 143.14C193.12 134.57 197 124.62 197 124.62L204.34 118.36C204.34 118.36 214.34 119.86 222.34 125.36C227.1 128.6 225.69 134.98 223.72 139.69C222.885 141.695 221.882 143.625 220.72 145.46C219.6 157.19 224.61 170.32 224.61 170.32Z" fill="#FFC3BD"/>
<path d="M199.33 145.5C199.33 145.5 203.33 145.69 205.08 143.21" stroke="#263238" stroke-linecap="round" stroke-linejoin="round"/>
<path d="M205.7 135.38C205.7 136.14 205.24 136.74 204.7 136.73C204.16 136.72 203.77 136.09 203.79 135.33C203.81 134.57 204.25 133.97 204.79 133.98C205.33 133.99 205.73 134.62 205.7 135.38Z" fill="#263238"/>
<path d="M196.58 135.62C196.58 136.38 196.12 136.98 195.58 136.97C195.04 136.96 194.65 136.33 194.67 135.57C194.69 134.81 195.13 134.21 195.67 134.22C196.21 134.23 196.61 134.87 196.58 135.62Z" fill="#263238"/>
<path d="M199.75 141.83L199.34 135.7L196.41 141.52C196.867 141.909 197.433 142.147 198.031 142.202C198.629 142.258 199.229 142.128 199.75 141.83Z" fill="#ED847E"/>
<path d="M205.22 130.58C205.987 130.369 206.804 130.438 207.525 130.773C208.247 131.108 208.826 131.688 209.16 132.41" stroke="#263238" stroke-linecap="round" stroke-linejoin="round"/>
<path d="M193.76 131.71C193.76 131.71 195.6 129.71 197.76 130.22" stroke="#263238" stroke-linecap="round" stroke-linejoin="round"/>
<path d="M223.79 139.69C212.35 140.1 210.93 127.13 210.93 127.13C205.27 130.13 197.04 124.63 197.04 124.63L204.38 118.35C204.38 118.35 214.38 119.87 222.38 125.35C227.17 128.6 225.76 135 223.79 139.69Z" fill="#263238"/>
<path d="M193.36 128.43C193.36 128.43 187.44 124.49 190.05 121.65C192.66 118.81 208.65 124.21 220.6 130.83C220.6 130.83 193.23 112.52 185.79 118.31C179.64 123.1 193.28 129.75 192.87 129.74L193.36 128.43Z" fill="#DB166E"/>
<path d="M226.75 127.09C226.733 129.164 226.34 131.217 225.59 133.15L198.71 120.15C199.824 118.864 201.158 117.787 202.65 116.97C204.241 116.06 205.971 115.418 207.77 115.07C209.678 114.705 211.631 114.638 213.56 114.87C223.39 116 226.8 123.56 226.75 127.09Z" fill="#DB166E"/>
<path d="M107.71 259.47C107.71 259.47 77.35 301.47 102.35 366.12" stroke="#263238" stroke-linecap="round" stroke-linejoin="round"/>
<path d="M147.78 281.29C147.78 281.29 147.78 281.37 147.78 281.53C147.78 281.69 147.78 281.78 147.78 281.96V282.06C147.419 286.105 146.75 290.117 145.78 294.06C144.4 299.89 142.57 305.44 141.06 309.9C134.66 328.85 135.4 349.27 135.4 349.27C133.28 346.63 129.4 344.75 124.55 343.43C106.89 338.58 76.9099 341.18 76.9099 341.18C71.0299 320.55 73.1299 288.26 78.9799 270.18C84.8299 252.1 101.05 256.18 101.05 256.18C101.05 256.18 118.17 256.68 120.32 256.45C124.255 255.973 128.238 256.053 132.15 256.69C145.37 259.11 148.55 269.56 147.78 281.29Z" fill="#DB166E"/>
<path d="M279.59 360C249.59 387.08 191.68 389.92 148.59 386.92L124.45 343.49L114.67 325.9L146.09 283.55L147.75 281.32C147.75 281.32 147.75 281.4 147.75 281.56C147.75 281.72 147.75 281.81 147.75 281.99V282.09C147.32 289.64 144.54 350.23 166.75 365.09L166.93 365.22C169.935 367.162 173.422 368.229 177 368.3C217.75 369.48 216.61 316.3 206.25 304.91L276.96 290.7C276.96 290.7 290.92 325.85 279.59 360Z" fill="#DB166E"/>
<path d="M200.94 293.38C200.94 293.38 194.31 298.88 197.73 306.26C201.15 313.64 234.12 299.31 247.1 296.7C260.08 294.09 275.1 291.54 281.56 290.21C288.02 288.88 287.46 270.35 282.18 268.71C276.9 267.07 225.18 276.21 216.6 281.23C210.934 284.671 205.68 288.747 200.94 293.38Z" fill="#263238"/>
<path d="M217.54 144.27C216.909 143.591 216.527 142.718 216.456 141.793C216.385 140.869 216.63 139.948 217.15 139.18C218.75 136.78 221.98 132.97 225.08 135.82C229.42 139.82 222.01 147.09 218.94 145.33C218.426 145.044 217.954 144.687 217.54 144.27Z" fill="#FFC3BD"/>
<path opacity="0.2" d="M193.36 128.43C193.36 128.43 187.44 124.49 190.05 121.65C191.21 120.39 194.68 120.65 199.37 121.99C202.386 122.802 205.34 123.828 208.21 125.06C212.33 126.85 216.71 129.14 220.6 130.83C220.6 130.83 193.23 112.52 185.79 118.31C179.64 123.1 192.43 129.31 192.88 129.73L193.1 128.92L193.36 128.43Z" fill="black"/>
<path d="M196.17 126.72C196.17 126.72 190.17 127.72 194.31 134.18L196.17 126.72Z" fill="#263238"/>
<path d="M201.92 122.78C201.92 122.78 192.87 119.6 190.35 121.4C187.83 123.2 190.47 126.63 193.35 128.4L195.66 128.7L197.02 124.6L200.54 124.17L201.92 122.78Z" fill="#263238"/>
<path opacity="0.3" d="M214.25 117.89L212.08 121.1L202.65 117C204.241 116.09 205.971 115.448 207.77 115.1L214.25 117.89Z" fill="white"/>
<path opacity="0.1" d="M212.15 156.26C211.526 157.92 210.63 159.464 209.5 160.83C209.305 159.58 209.018 158.347 208.64 157.14C209.853 157.055 211.041 156.757 212.15 156.26Z" fill="black"/>
<path d="M122.5 244.2C122.1 251.13 119.1 256.8 115.42 258.2C114.783 258.445 114.101 258.551 113.42 258.51C108.88 258.25 105.58 251.44 106.04 243.31C106.5 235.18 110.56 228.8 115.1 229.06C116.95 229.16 118.58 230.35 119.85 232.26C121.72 235 122.77 239.38 122.5 244.2Z" fill="#F5F5F5"/>
<path d="M122.5 244.2C122.1 251.13 119.1 256.8 115.42 258.2C111.22 257.96 108.17 251.67 108.6 244.2C109.03 236.73 112.77 230.8 116.97 231.04C118.052 231.121 119.076 231.561 119.88 232.29C121.72 235 122.77 239.38 122.5 244.2Z" fill="white"/>
<path d="M284.57 342.43C276.84 337 246.93 331.67 246.93 331.67C228.76 331.67 212.81 348.02 210.61 369.73C208.81 387.39 216.61 403.42 229.18 410.73C229.18 410.73 230.23 411.17 231.99 411.86C238.65 414.49 255.55 420.86 265.54 422.26" fill="#263238"/>
<path opacity="0.3" d="M304.878 384.38C307.209 361.474 293.379 341.305 273.989 339.332C254.599 337.359 236.991 354.329 234.66 377.235C232.33 400.142 246.159 420.311 265.549 422.284C284.939 424.257 302.547 407.287 304.878 384.38Z" fill="black"/>
<path d="M149.418 383.047C151.749 360.14 137.92 339.972 118.53 337.999C99.14 336.026 81.5318 352.996 79.201 375.902C76.8702 398.809 90.6994 418.977 110.089 420.95C129.479 422.923 147.088 405.953 149.418 383.047Z" fill="#263238"/>
<path d="M135.88 345.64L118 420.71C115.391 421.133 112.739 421.21 110.11 420.94H109.91C106.48 420.06 108.01 421.01 104.57 419.87C95.8199 416.98 83.1099 411.87 83.1099 411.87C69.6399 405.32 62.0299 389.39 63.8799 371.19C66.1199 349.14 81.9399 332.67 100.56 334.02C100.56 334.02 109.4 335.65 118.5 338.02C122.5 339.02 126.5 340.21 129.79 341.45C131.968 342.618 134.011 344.023 135.88 345.64Z" fill="#263238"/>
<path opacity="0.3" d="M149.42 383C147.42 402.75 134.05 418.08 117.98 420.67C115.371 421.093 112.719 421.17 110.09 420.9H109.89C106.228 420.505 102.67 419.444 99.3899 417.77C85.8799 410.92 77.3299 394.28 79.1999 375.88C81.5299 352.99 99.0999 336.04 118.48 337.98H118.53C122.465 338.377 126.284 339.543 129.77 341.41C131.949 342.581 133.991 343.99 135.86 345.61C145.43 353.93 151 367.89 149.42 383Z" fill="black"/>
<path d="M144.55 356.7C143.964 355.765 143.294 354.885 142.55 354.07C138.08 347.97 127.86 345.69 121.17 346.23C116.041 346.731 111.117 348.497 106.84 351.37C101.96 354.53 98.4699 359.37 93.6299 362.69C84.4499 369.03 70.5199 368.85 61.2999 362.32C60.78 361.95 60.2856 361.546 59.8199 361.11C58.8803 360.132 58.2536 358.896 58.0199 357.56C57.6672 355.892 57.7955 354.158 58.3899 352.56C60.3899 346.94 67.0599 342 71.2699 338.99C79.8053 332.968 89.8446 329.434 100.27 328.78C130 326.73 142.68 352.12 144.55 356.7Z" fill="#DB166E"/>
<path opacity="0.3" d="M142.49 357.5C136.1 348.28 127.9 345.69 121.21 346.23C116.081 346.73 111.157 348.497 106.88 351.37C102 354.53 98.51 359.37 93.67 362.69C84.49 369.03 70.56 368.85 61.34 362.32C60.82 361.95 60.3256 361.546 59.86 361.11C58.9203 360.132 58.2936 358.896 58.06 357.56C57.7072 355.892 57.8355 354.158 58.43 352.56C61.52 356.13 70.52 364.73 82.71 360.56C97.91 355.31 101.62 339.71 117.87 339.85C130.78 340 138.73 350 142.49 357.5Z" fill="black"/>
<g opacity="0.3">
<path opacity="0.3" d="M75.6199 336.24C79.9561 333.158 84.8347 330.923 89.9999 329.65C95.1701 328.334 100.524 327.895 105.84 328.35C111.147 328.861 116.344 330.183 121.25 332.27L123.07 333.07L124.85 333.96C126.05 334.52 127.18 335.22 128.34 335.86C129.5 336.5 130.57 337.29 131.68 338C132.79 338.71 133.83 339.54 134.89 340.33C130.529 337.408 125.873 334.951 121 333C116.136 331.049 111.011 329.825 105.79 329.37C100.58 328.872 95.3235 329.209 90.2199 330.37C87.6577 330.938 85.146 331.714 82.7099 332.69C80.2375 333.642 77.8631 334.831 75.6199 336.24Z" fill="black"/>
</g>
<g opacity="0.3">
<path opacity="0.3" d="M108 329.09C106.753 324.92 106.004 320.616 105.77 316.27C105.44 311.94 105.37 307.59 105.46 303.27C105.55 298.95 105.85 294.59 106.25 290.27L106.98 283.81C107.3 281.66 107.58 279.51 107.98 277.37L107.07 290.37L106.71 296.85C106.65 299.01 106.52 301.17 106.51 303.33C106.34 307.65 106.42 311.97 106.58 316.33C106.65 318.49 106.82 320.64 107.04 322.79C107.216 324.909 107.536 327.014 108 329.09Z" fill="black"/>
</g>
<path opacity="0.3" d="M166.7 365C145.82 351.57 144.99 316.92 145.7 294.06C145.83 290.13 145.99 286.56 146.11 283.49C146.329 280.417 146.329 277.333 146.11 274.26C144 258.56 132 256.67 132 256.67H132.05C145.34 259.11 148.52 269.56 147.75 281.29C147.75 281.29 147.75 281.37 147.75 281.53C147.75 281.69 147.75 281.78 147.75 281.96V282.06C147.3 289.61 144.52 350.2 166.7 365Z" fill="black"/>
<path opacity="0.2" d="M165 246.66C163.25 248.49 140.62 243.8 136.67 245.9C135 246.78 134.27 249.9 132.59 253.32C127.87 260.82 121.23 262 120.82 262.06C128.74 256.06 130.95 241.62 127.02 232.49C123.09 223.36 109.02 225.73 108.22 226C110.619 224.945 113.2 224.364 115.82 224.29C123.43 223.89 132.71 226.03 135.31 230.85C140.59 240.68 163.23 238.47 165.31 241.05C167.39 243.63 166.75 244.83 165 246.66Z" fill="black"/>
<path d="M147.28 237.93C145.904 240.469 145.355 243.374 145.71 246.24L164.88 248.4C165.86 247.266 166.584 245.934 167.004 244.495C167.423 243.056 167.527 241.543 167.31 240.06C167.31 240.06 148.32 238.15 147.28 237.93Z" fill="#263238"/>
<path d="M89.0699 237.22C89.0699 237.22 87.1599 233.16 89.4499 230.59C84.3299 230.13 81.1599 229.59 77.8599 229.11C77.3699 230.6 77.1299 232.03 78.8599 234.3C80.5899 236.57 89.0699 237.22 89.0699 237.22Z" fill="#263238"/>
<path d="M78.4199 262.63C75.0999 268.04 72.2599 276.7 72.0099 290.53" stroke="#DB166E" stroke-linecap="round" stroke-linejoin="round"/>
<path d="M89.3499 253.71C86.9346 254.27 84.714 255.469 82.9199 257.18" stroke="#DB166E" stroke-linecap="round" stroke-linejoin="round"/>
<path d="M238.48 201.58L225.86 203.12C225.86 203.12 223.66 226.31 221.62 230.82C221.62 230.82 182.81 236.16 166.9 235.69L158.83 241.17L158.55 250.71L166.46 250.94L169.01 244.94C169.01 244.94 174.35 244.71 175.58 241.7C175.58 241.7 216.82 251.7 232.01 240.3C232 240.26 241.17 226.81 238.48 201.58Z" fill="#FFC3BD"/>
<path opacity="0.2" d="M135.72 380C135.36 392.58 127.12 402.54 117.31 402.26C115.991 402.221 114.685 401.995 113.43 401.59C105.57 399.09 99.9099 389.82 100.22 378.97C100.53 368.47 106.32 359.79 113.93 357.38C115.45 356.891 117.043 356.664 118.64 356.71C128.45 357 136.09 367.46 135.72 380Z" fill="#FAFAFA"/>
<path d="M126.69 380C126.38 390.74 120.69 399.57 113.43 401.62C105.57 399.12 99.9099 389.85 100.22 379C100.53 368.5 106.32 359.82 113.93 357.41C121.49 359.46 127 368.88 126.69 380Z" fill="#263238"/>
<path opacity="0.2" d="M289.8 381C289.43 393.58 281.19 403.55 271.39 403.26C270.071 403.226 268.764 403 267.51 402.59C259.64 400.09 253.98 390.83 254.3 379.97C254.6 369.48 260.39 360.79 268 358.38C269.521 357.891 271.113 357.664 272.71 357.71C282.52 358 290.16 368.44 289.8 381Z" fill="#FAFAFA"/>
<path d="M280.77 381C280.45 391.73 274.77 400.56 267.51 402.61C259.64 400.11 253.98 390.85 254.3 379.99C254.6 369.5 260.39 360.81 268 358.4C275.57 360.45 281.09 369.87 280.77 381Z" fill="#263238"/>
<path d="M305.26 347.86C305.43 360.23 286.6 368.42 255.09 373.58C246.596 375.073 237.916 375.175 229.39 373.88C215.39 371.57 208.55 365.65 208.55 365.65C208.55 365.65 212.11 322.9 247.34 317.48C271.34 313.8 289.4 323.48 298.56 333.91C302.87 338.81 305.21 343.9 305.26 347.86Z" fill="#DB166E"/>
<path opacity="0.3" d="M305.26 347.86C305.43 360.23 286.6 368.42 255.09 373.58C246.596 375.073 237.916 375.175 229.39 373.88C230.9 362.27 237.68 331.82 267.15 328.66C280.52 327.22 290.84 329.92 298.56 333.91C302.87 338.81 305.21 343.9 305.26 347.86Z" fill="black"/>
<g opacity="0.3">
<path opacity="0.3" d="M210.59 365.84C211.238 360.021 212.626 354.308 214.72 348.84C216.779 343.315 219.621 338.116 223.16 333.4C224.948 331.056 226.957 328.889 229.16 326.93C231.343 324.939 233.749 323.207 236.33 321.77C241.466 318.873 247.158 317.098 253.03 316.56C250.153 317.042 247.322 317.771 244.57 318.74C243.18 319.16 241.87 319.81 240.57 320.36C239.266 320.985 237.994 321.676 236.76 322.43C235.5 323.15 234.34 324.02 233.15 324.83C231.96 325.64 230.86 326.6 229.81 327.61C227.675 329.55 225.729 331.69 224 334C220.487 338.625 217.624 343.709 215.49 349.11C214.382 351.8 213.427 354.552 212.63 357.35C211.781 360.137 211.1 362.972 210.59 365.84Z" fill="black"/>
</g>
<path d="M163.31 351.72L165.39 358.78L187.2 356.96L187.49 347.09L163.31 351.72Z" fill="#DB166E"/>
<path d="M293.16 303.57L341.15 301.62" stroke="#DB166E" stroke-linecap="round" stroke-linejoin="round"/>
<path d="M357.01 292.88L364.14 292.59" stroke="#DB166E" stroke-linecap="round" stroke-linejoin="round"/>
<path d="M316.16 294.54L351.54 293.1" stroke="#DB166E" stroke-linecap="round" stroke-linejoin="round"/>
<path d="M340.92 319.38L370.57 318.18" stroke="#DB166E" stroke-linecap="round" stroke-linejoin="round"/>
<path d="M322.59 320.13L335.51 319.6" stroke="#DB166E" stroke-linecap="round" stroke-linejoin="round"/>
</svg>
